<svg width="1440" height="900" viewBox="0 0 1440 900" fill="none" xmlns="http://www.w3.org/2000/svg">
<rect width="1440" height="900" fill="white"/>
<mask id="mask0_30192_229" style="mask-type:alpha" maskUnits="userSpaceOnUse" x="0" y="0" width="1440" height="900">
<rect width="1440" height="900" fill="white"/>
</mask>
<g mask="url(#mask0_30192_229)">
<path fill-rule="evenodd" clip-rule="evenodd" d="M889.12 0H1473.13V277.04H889.12V0Z" fill="url(#paint0_linear_30192_229)"/>
<path fill-rule="evenodd" clip-rule="evenodd" d="M1452.62 144.317C1452.62 144.317 1405.71 128.233 1363.71 128.233C1321.72 128.233 1235.91 121.284 1197.15 107.131C1158.38 92.9782 1099.11 62.961 1061.65 44.8196C1024.19 26.6781 976.201 0.741122 904.566 -14.5743C832.931 -29.8897 271.941 -45.6324 271.941 -45.6324L460.083 268.936L1004.68 553.361L1488 653.154L1452.62 144.317Z" fill="url(#paint1_linear_30192_229)"/>
<path fill-rule="evenodd" clip-rule="evenodd" d="M1454.34 289.04C1454.34 289.04 1414.76 259.427 1361.13 242.805C1307.49 226.183 1248.81 212.835 1189.38 178.488C1129.95 144.14 1053.26 120.267 1011.58 114.162C969.91 108.058 928.038 105.046 895.932 93.0568C863.827 81.0672 813.55 49.8369 769.064 40.7996C724.579 31.7622 685.515 35.6763 652.547 27.7304C619.578 19.7844 509.284 -20.5068 509.284 -20.5068L284.02 -36.5872L336.664 137.278L706.064 385.522L1242.89 636.778C1242.89 636.778 1525.11 664.919 1525.11 664.919C1525.11 664.919 1454.34 289.04 1454.34 289.04Z" fill="url(#paint2_linear_30192_229)"/>
<path fill-rule="evenodd" clip-rule="evenodd" d="M1454.34 289.04C1454.34 289.04 1414.76 259.427 1361.13 242.805C1307.49 226.183 1248.81 212.835 1189.38 178.488C1129.95 144.14 1053.26 120.267 1011.58 114.162C969.91 108.058 928.038 105.046 895.932 93.0568C863.827 81.0672 813.55 49.8369 769.064 40.7996C724.579 31.7622 685.515 35.6763 652.547 27.7304C619.578 19.7844 509.284 -20.5068 509.284 -20.5068L284.02 -36.5872L336.664 137.278L706.064 385.522L1242.89 636.778C1242.89 636.778 1525.11 664.919 1525.11 664.919C1525.11 664.919 1454.34 289.04 1454.34 289.04Z" fill="url(#paint3_linear_30192_229)"/>
<path fill-rule="evenodd" clip-rule="evenodd" d="M547.892 109.229C547.892 109.229 575.89 116.956 606.008 126.977C636.126 136.998 682.089 147.076 724.292 150.092C766.495 153.108 805.8 150.161 843.787 146.779C881.773 143.397 910.669 146.779 942.642 157.603C961.525 163.995 970.847 173.542 984.196 179.609C994.297 184.199 1007.73 186.968 1018.47 189.211C1043.43 194.418 1068.67 204.024 1098.42 221.323C1128.17 238.622 1161.94 252.361 1192.31 258.319C1222.68 264.276 1273.93 267.335 1324.61 274.884C1375.29 282.433 1408.98 296.134 1428.46 305.254C1447.93 314.373 1469.24 330.102 1469.24 330.102L1497.61 653.153L1108.53 596.123L406.561 74.9319L547.892 109.229Z" fill="url(#paint4_linear_30192_229)"/>
<g filter="url(#filter0_f_30192_229)">
<path fill-rule="evenodd" clip-rule="evenodd" d="M1451.05 449.999C1451.05 449.999 1387.8 422.055 1343.88 400.933C1299.96 379.811 1210.2 342.415 1126.34 328.29C1042.48 314.165 934.547 284.779 879.972 268.685C825.397 252.59 584.089 179.278 584.089 179.278L561.701 268.685L1004.68 553.36L1473.59 682.201L1451.05 449.999Z" fill="url(#paint5_linear_30192_229)"/>
</g>
<g filter="url(#filter1_f_30192_229)">
<path fill-rule="evenodd" clip-rule="evenodd" d="M786.169 220.958L960.529 293.456C960.529 293.456 830.805 261.817 812.839 261.455C804.714 261.292 648.879 210.344 643.596 197.978C641.091 192.115 786.169 220.958 786.169 220.958Z" fill="#F9A43F"/>
</g>
<g filter="url(#filter2_f_30192_229)">
<path fill-rule="evenodd" clip-rule="evenodd" d="M570.722 138.521C570.722 138.521 754.727 147.332 825.665 213.052C896.603 278.771 1056.27 364.044 1056.27 364.044C1056.27 364.044 805.7 314.166 730.514 314.166C655.328 314.166 561.701 226.343 561.701 226.343L570.722 138.521Z" fill="url(#paint6_linear_30192_229)"/>
</g>
<path fill-rule="evenodd" clip-rule="evenodd" d="M394.481 -2.18538e-05C394.481 -2.18538e-05 457.483 31.4232 514.822 76.7507C572.161 122.078 589.487 147.839 616.253 169.663C643.018 191.487 706.4 210.734 746.07 226.352C785.74 241.97 821.834 272.411 844.781 298.787C867.727 325.163 912.706 344.275 954.314 357.051C995.923 369.827 1031.65 385.6 1063.91 415.433C1096.16 445.266 1131.44 457.519 1168.28 465.229C1205.12 472.939 1219.84 476.345 1249.82 516.407C1279.8 556.469 1300.45 554.256 1359.22 550.281C1417.98 546.306 1465.48 561.76 1465.48 561.76L1473.59 938.109L-12.5625 930.23V-14.5748L373.262 -14.5748L394.481 -2.18538e-05Z" fill="url(#paint7_linear_30192_229)"/>
<g filter="url(#filter3_f_30192_229)">
<path fill-rule="evenodd" clip-rule="evenodd" d="M0.561901 138.521L-0.0166016 898.693L1440.56 900.142L1440.17 697.681C1440.17 697.681 1340.61 718.446 1214.44 718.446C1088.28 718.446 951.265 694.484 812.84 587.769C674.414 481.053 595.565 481.246 463.342 450.219C331.119 419.191 310.099 399.342 226.773 351.551C143.446 303.761 0.561901 138.521 0.561901 138.521Z" fill="url(#paint8_linear_30192_229)"/>
</g>
<g filter="url(#filter4_f_30192_229)">
<path fill-rule="evenodd" clip-rule="evenodd" d="M0.000351961 277.248L-0.0166016 898.287H1322.26C1322.26 898.287 629.315 646.636 484.71 584.956C340.105 523.276 294.065 392.133 227.334 333.494C160.604 274.856 0.000351961 277.248 0.000351961 277.248Z" fill="url(#paint9_linear_30192_229)"/>
</g>
<g filter="url(#filter5_f_30192_229)">
<path fill-rule="evenodd" clip-rule="evenodd" d="M612.931 486.947C612.931 486.947 493.011 425.055 421.496 381.436C349.98 337.818 17.9302 208.073 -12.5621 208.073C-43.0543 208.073 -21.2106 287.371 -21.2106 287.371C-21.2106 287.371 86.5902 365.673 278.847 430.74C471.104 495.808 612.931 486.947 612.931 486.947Z" fill="url(#paint10_linear_30192_229)"/>
</g>
<g filter="url(#filter6_f_30192_229)">
<path d="M511.478 448.256C544.722 462.031 582.421 477.427 601.233 482.804C601.233 485.674 579.519 486.074 552.191 486.945C524.862 487.817 406.125 478.009 338.615 470.816L316.433 412.727L354.338 378.287C392.866 395.87 478.234 434.48 511.478 448.256Z" fill="url(#paint11_radial_30192_229)"/>
</g>
<g filter="url(#filter7_f_30192_229)">
<path fill-rule="evenodd" clip-rule="evenodd" d="M0.561748 74.9319C0.561748 74.9319 196.776 119.589 333.831 251.281C470.885 382.973 591.873 487.999 591.873 487.999C591.873 487.999 521.13 524.128 454.387 518.333C385.377 512.341 311.134 487.999 245.865 487.999C93.2661 487.999 6.36443 487.999 6.36443 487.999C6.36443 487.999 1.88971 623.712 -0.0167551 487.999C-1.92322 352.286 0.561748 74.9319 0.561748 74.9319Z" fill="url(#paint12_linear_30192_229)"/>
</g>
<g filter="url(#filter8_bf_30192_229)">
<path d="M-0.561523 900.326V250.883C85.6675 288.52 442.535 481.988 554.436 533.264C718.783 608.573 1327.69 820.84 1440.84 900.326H-0.561523Z" fill="url(#paint13_linear_30192_229)"/>
</g>
<g filter="url(#filter9_f_30192_229)">
<path fill-rule="evenodd" clip-rule="evenodd" d="M0.562012 489.344L0.562018 900.436L1440.56 1003.75V809.325C1440.56 809.325 1112.52 805.991 667.308 737.939C222.102 669.888 0.562012 489.344 0.562012 489.344Z" fill="url(#paint14_linear_30192_229)"/>
</g>
<g filter="url(#filter10_f_30192_229)">
<path fill-rule="evenodd" clip-rule="evenodd" d="M969.141 676.253C969.141 676.253 1083.5 709.199 1157.98 709.199C1232.46 709.199 1440 695.7 1440 695.7L1439.44 776.795C1439.44 776.795 1256.12 775.848 1145.32 747.426C1034.51 719.005 969.141 676.253 969.141 676.253Z" fill="#F11454"/>
</g>
<g filter="url(#filter11_f_30192_229)">
<path fill-rule="evenodd" clip-rule="evenodd" d="M935.916 663.175C935.916 663.175 1207.17 682.202 1275.54 664.918C1343.92 647.635 1440 602.8 1440 602.8L1441.5 815.226C1441.5 815.226 1240 825.773 1140.6 783.168C1041.21 740.563 935.916 663.175 935.916 663.175Z" fill="url(#paint15_linear_30192_229)"/>
</g>
</g>
<defs>
<filter id="filter0_f_30192_229" x="556.264" y="173.841" width="922.763" height="513.796" filterUnits="userSpaceOnUse" color-interpolation-filters="sRGB">
<feFlood flood-opacity="0" result="BackgroundImageFix"/>
<feBlend mode="normal" in="SourceGraphic" in2="BackgroundImageFix" result="shape"/>
<feGaussianBlur stdDeviation="2.71828" result="effect1_foregroundBlur_30192_229"/>
</filter>
<filter id="filter1_f_30192_229" x="616.381" y="170.008" width="371.331" height="150.631" filterUnits="userSpaceOnUse" color-interpolation-filters="sRGB">
<feFlood flood-opacity="0" result="BackgroundImageFix"/>
<feBlend mode="normal" in="SourceGraphic" in2="BackgroundImageFix" result="shape"/>
<feGaussianBlur stdDeviation="13.5914" result="effect1_foregroundBlur_30192_229"/>
</filter>
<filter id="filter2_f_30192_229" x="425.787" y="2.60678" width="766.402" height="497.351" filterUnits="userSpaceOnUse" color-interpolation-filters="sRGB">
<feFlood flood-opacity="0" result="BackgroundImageFix"/>
<feBlend mode="normal" in="SourceGraphic" in2="BackgroundImageFix" result="shape"/>
<feGaussianBlur stdDeviation="67.957" result="effect1_foregroundBlur_30192_229"/>
</filter>
<filter id="filter3_f_30192_229" x="-10.0166" y="128.521" width="1460.58" height="781.621" filterUnits="userSpaceOnUse" color-interpolation-filters="sRGB">
<feFlood flood-opacity="0" result="BackgroundImageFix"/>
<feBlend mode="normal" in="SourceGraphic" in2="BackgroundImageFix" result="shape"/>
<feGaussianBlur stdDeviation="5" result="effect1_foregroundBlur_30192_229"/>
</filter>
<filter id="filter4_f_30192_229" x="-100.017" y="177.234" width="1522.28" height="821.053" filterUnits="userSpaceOnUse" color-interpolation-filters="sRGB">
<feFlood flood-opacity="0" result="BackgroundImageFix"/>
<feBlend mode="normal" in="SourceGraphic" in2="BackgroundImageFix" result="shape"/>
<feGaussianBlur stdDeviation="50" result="effect1_foregroundBlur_30192_229"/>
</filter>
<filter id="filter5_f_30192_229" x="-108.787" y="128.073" width="801.719" height="439.28" filterUnits="userSpaceOnUse" color-interpolation-filters="sRGB">
<feFlood flood-opacity="0" result="BackgroundImageFix"/>
<feBlend mode="normal" in="SourceGraphic" in2="BackgroundImageFix" result="shape"/>
<feGaussianBlur stdDeviation="40" result="effect1_foregroundBlur_30192_229"/>
</filter>
<filter id="filter6_f_30192_229" x="216.433" y="278.287" width="484.799" height="308.713" filterUnits="userSpaceOnUse" color-interpolation-filters="sRGB">
<feFlood flood-opacity="0" result="BackgroundImageFix"/>
<feBlend mode="normal" in="SourceGraphic" in2="BackgroundImageFix" result="shape"/>
<feGaussianBlur stdDeviation="50" result="effect1_foregroundBlur_30192_229"/>
</filter>
<filter id="filter7_f_30192_229" x="-200.736" y="-125.068" width="992.61" height="873.384" filterUnits="userSpaceOnUse" color-interpolation-filters="sRGB">
<feFlood flood-opacity="0" result="BackgroundImageFix"/>
<feBlend mode="normal" in="SourceGraphic" in2="BackgroundImageFix" result="shape"/>
<feGaussianBlur stdDeviation="100" result="effect1_foregroundBlur_30192_229"/>
</filter>
<filter id="filter8_bf_30192_229" x="-250.562" y="0.883301" width="1941.4" height="1149.44" filterUnits="userSpaceOnUse" color-interpolation-filters="sRGB">
<feFlood flood-opacity="0" result="BackgroundImageFix"/>
<feGaussianBlur in="BackgroundImageFix" stdDeviation="100"/>
<feComposite in2="SourceAlpha" operator="in" result="effect1_backgroundBlur_30192_229"/>
<feBlend mode="normal" in="SourceGraphic" in2="effect1_backgroundBlur_30192_229" result="shape"/>
<feGaussianBlur stdDeviation="125" result="effect2_foregroundBlur_30192_229"/>
</filter>
<filter id="filter9_f_30192_229" x="-99.438" y="389.344" width="1640" height="714.41" filterUnits="userSpaceOnUse" color-interpolation-filters="sRGB">
<feFlood flood-opacity="0" result="BackgroundImageFix"/>
<feBlend mode="normal" in="SourceGraphic" in2="BackgroundImageFix" result="shape"/>
<feGaussianBlur stdDeviation="50" result="effect1_foregroundBlur_30192_229"/>
</filter>
<filter id="filter10_f_30192_229" x="955.549" y="662.662" width="498.042" height="127.724" filterUnits="userSpaceOnUse" color-interpolation-filters="sRGB">
<feFlood flood-opacity="0" result="BackgroundImageFix"/>
<feBlend mode="normal" in="SourceGraphic" in2="BackgroundImageFix" result="shape"/>
<feGaussianBlur stdDeviation="6.7957" result="effect1_foregroundBlur_30192_229"/>
</filter>
<filter id="filter11_f_30192_229" x="735.916" y="402.8" width="905.582" height="613.582" filterUnits="userSpaceOnUse" color-interpolation-filters="sRGB">
<feFlood flood-opacity="0" result="BackgroundImageFix"/>
<feBlend mode="normal" in="SourceGraphic" in2="BackgroundImageFix" result="shape"/>
<feGaussianBlur stdDeviation="100" result="effect1_foregroundBlur_30192_229"/>
</filter>
<linearGradient id="paint0_linear_30192_229" x1="1473.13" y1="-58.015" x2="1099.83" y2="-58.015" gradientUnits="userSpaceOnUse">
<stop stop-color="#036DB1"/>
<stop offset="1" stop-color="#1080C3"/>
</linearGradient>
<linearGradient id="paint1_linear_30192_229" x1="713.543" y1="-12.6586" x2="713.543" y2="178.612" gradientUnits="userSpaceOnUse">
<stop stop-color="#3E9FD7"/>
<stop offset="1" stop-color="#1179BA"/>
</linearGradient>
<linearGradient id="paint2_linear_30192_229" x1="575.676" y1="-18.2414" x2="596.59" y2="313.953" gradientUnits="userSpaceOnUse">
<stop stop-color="#2A8AC4"/>
<stop offset="1" stop-color="#1175B3"/>
</linearGradient>
<linearGradient id="paint3_linear_30192_229" x1="417.75" y1="90.3614" x2="602.036" y2="314.618" gradientUnits="userSpaceOnUse">
<stop stop-color="#4DB0E5"/>
<stop offset="1" stop-color="#2A89C3" stop-opacity="0.01"/>
</linearGradient>
<linearGradient id="paint4_linear_30192_229" x1="779.772" y1="129.106" x2="773.518" y2="335.777" gradientUnits="userSpaceOnUse">
<stop stop-color="#B3CAF5"/>
<stop offset="1" stop-color="#E2EEF6"/>
</linearGradient>
<linearGradient id="paint5_linear_30192_229" x1="1020.57" y1="313.069" x2="1010.85" y2="472.254" gradientUnits="userSpaceOnUse">
<stop stop-color="#F99E3D"/>
<stop offset="1" stop-color="#F9C146"/>
</linearGradient>
<linearGradient id="paint6_linear_30192_229" x1="621.735" y1="185.897" x2="614.97" y2="357.676" gradientUnits="userSpaceOnUse">
<stop stop-color="#C5D8F6"/>
<stop offset="0.384522" stop-color="#F9A43E"/>
<stop offset="1" stop-color="#F9AF41"/>
</linearGradient>
<linearGradient id="paint7_linear_30192_229" x1="238.885" y1="-3.10699" x2="169.197" y2="637.76" gradientUnits="userSpaceOnUse">
<stop stop-color="#F24067"/>
<stop offset="0.574723" stop-color="#FE5F49"/>
<stop offset="1" stop-color="#FB5951"/>
</linearGradient>
<linearGradient id="paint8_linear_30192_229" x1="444.775" y1="545.827" x2="409.493" y2="858.7" gradientUnits="userSpaceOnUse">
<stop stop-color="#F11454"/>
<stop offset="1" stop-color="#C22D7C"/>
</linearGradient>
<linearGradient id="paint9_linear_30192_229" x1="26.3932" y1="323.032" x2="-136.96" y2="912.534" gradientUnits="userSpaceOnUse">
<stop offset="0.244701" stop-color="#C22B7A" stop-opacity="0.01"/>
<stop offset="0.832481" stop-color="#2C4270"/>
</linearGradient>
<linearGradient id="paint10_linear_30192_229" x1="275.959" y1="349.29" x2="270.08" y2="435.677" gradientUnits="userSpaceOnUse">
<stop stop-color="#F21555"/>
<stop offset="1" stop-color="#F11556"/>
</linearGradient>
<radialGradient id="paint11_radial_30192_229" cx="0" cy="0" r="1" gradientUnits="userSpaceOnUse" gradientTransform="translate(316.527 436.812) rotate(9.47159) scale(263.591 929.72)">
<stop stop-color="#F11655"/>
<stop offset="1" stop-color="#F21656" stop-opacity="0"/>
</radialGradient>
<linearGradient id="paint12_linear_30192_229" x1="272.82" y1="113.235" x2="-13.1145" y2="534.496" gradientUnits="userSpaceOnUse">
<stop stop-color="#FD5E49" stop-opacity="0.51"/>
<stop offset="0.436504" stop-color="#EB1759"/>
<stop offset="0.67557" stop-color="#F21555"/>
<stop offset="0.90159" stop-color="#EF1757"/>
</linearGradient>
<linearGradient id="paint13_linear_30192_229" x1="209.552" y1="859.457" x2="407.036" y2="460.851" gradientUnits="userSpaceOnUse">
<stop offset="0.0704209" stop-color="#443F75"/>
<stop offset="0.432099" stop-color="#813779"/>
<stop offset="0.950835" stop-color="#DA1E6A"/>
</linearGradient>
<linearGradient id="paint14_linear_30192_229" x1="282.366" y1="746.549" x2="267.696" y2="948.39" gradientUnits="userSpaceOnUse">
<stop stop-color="#A82F7E" stop-opacity="0.01"/>
<stop offset="1" stop-color="#3E4579"/>
</linearGradient>
<linearGradient id="paint15_linear_30192_229" x1="1051.6" y1="655.355" x2="1049.43" y2="788.316" gradientUnits="userSpaceOnUse">
<stop stop-color="#FD5F48"/>
<stop offset="1" stop-color="#D5216D"/>
</linearGradient>
</defs>
</svg>
